<?xml version="1.0" encoding="UTF-8" standalone="no"?>
<!DOCTYPE svg PUBLIC "-//W3C//DTD SVG 1.1//EN"
 "http://www.w3.org/Graphics/SVG/1.1/DTD/svg11.dtd">
<!-- Generated by graphviz version 2.42.4 (0)
 -->
<!-- Title: G Pages: 1 -->
<svg width="3692pt" height="209pt"
 viewBox="0.00 0.00 3691.83 208.50" xmlns="http://www.w3.org/2000/svg" xmlns:xlink="http://www.w3.org/1999/xlink">
<g id="graph0" class="graph" transform="scale(1 1) rotate(0) translate(4 204.5)">
<title>G</title>
<polygon fill="white" stroke="transparent" points="-4,4 -4,-204.5 3687.83,-204.5 3687.83,4 -4,4"/>
<!-- 640cf67 -->
<g id="node1" class="node">
<title>640cf67</title>
<ellipse fill="bisque" stroke="bisque" cx="3646.33" cy="-154.5" rx="32.93" ry="18"/>
<text text-anchor="middle" x="3646.33" y="-152" font-family="Times,serif" font-size="10.00">640cf67</text>
</g>
<!-- bid&#45;00000000 -->
<g id="node40" class="node">
<title>bid&#45;00000000</title>
<polygon fill="lightblue" stroke="lightblue" points="3683.83,-100.5 3608.83,-100.5 3608.83,-70.5 3683.83,-70.5 3683.83,-100.5"/>
<text text-anchor="middle" x="3646.33" y="-88.5" font-family="Times,serif" font-size="10.00">main</text>
<text text-anchor="middle" x="3646.33" y="-77.5" font-family="Times,serif" font-size="10.00">origin/main</text>
</g>
<!-- 640cf67&#45;&gt;bid&#45;00000000 -->
<g id="edge43" class="edge">
<title>640cf67&#45;&gt;bid&#45;00000000</title>
<path fill="none" stroke="lightblue" d="M3646.33,-136.39C3646.33,-124.46 3646.33,-112.53 3646.33,-100.59"/>
</g>
<!-- 69c142a -->
<g id="node2" class="node">
<title>69c142a</title>
<ellipse fill="tomato" stroke="tomato" cx="3537.68" cy="-154.5" rx="34.29" ry="18"/>
<text text-anchor="middle" x="3537.68" y="-152" font-family="Times,serif" font-size="10.00">69c142a</text>
</g>
<!-- 69c142a&#45;&gt;640cf67 -->
<g id="edge1" class="edge">
<title>69c142a&#45;&gt;640cf67</title>
<path fill="none" stroke="black" d="M3582.05,-154.5C3592.49,-154.5 3603.46,-154.5 3613.28,-154.5"/>
<polygon fill="black" stroke="black" points="3571.84,-154.5 3581.84,-150 3576.84,-154.5 3581.84,-154.5 3581.84,-154.5 3581.84,-154.5 3576.84,-154.5 3581.84,-159 3571.84,-154.5 3571.84,-154.5"/>
</g>
<!-- 59f4dbc -->
<g id="node3" class="node">
<title>59f4dbc</title>
<ellipse fill="tomato" stroke="tomato" cx="3426.99" cy="-154.5" rx="33.61" ry="18"/>
<text text-anchor="middle" x="3426.99" y="-152" font-family="Times,serif" font-size="10.00">59f4dbc</text>
</g>
<!-- 59f4dbc&#45;&gt;69c142a -->
<g id="edge2" class="edge">
<title>59f4dbc&#45;&gt;69c142a</title>
<path fill="none" stroke="black" stroke-dasharray="1,5" d="M3460.6,-154.5C3474.11,-154.5 3489.76,-154.5 3503.34,-154.5"/>
<text text-anchor="middle" x="3482.04" y="-157.5" font-family="Times,serif" font-size="10.00">2</text>
</g>
<!-- c863306 -->
<g id="node4" class="node">
<title>c863306</title>
<ellipse fill="bisque" stroke="bisque" cx="3301.93" cy="-154.5" rx="34.29" ry="18"/>
<text text-anchor="middle" x="3301.93" y="-152" font-family="Times,serif" font-size="10.00">c863306</text>
</g>
<!-- c863306&#45;&gt;59f4dbc -->
<g id="edge3" class="edge">
<title>c863306&#45;&gt;59f4dbc</title>
<path fill="none" stroke="black" d="M3346.53,-154.5C3361.85,-154.5 3378.79,-154.5 3393.09,-154.5"/>
<polygon fill="black" stroke="black" points="3336.23,-154.5 3346.23,-150 3341.23,-154.5 3346.23,-154.5 3346.23,-154.5 3346.23,-154.5 3341.23,-154.5 3346.23,-159 3336.23,-154.5 3336.23,-154.5"/>
</g>
<!-- bid&#45;00000003 -->
<g id="node41" class="node">
<title>bid&#45;00000003</title>
<polygon fill="lightblue" stroke="lightblue" points="3356.43,-100.5 3247.43,-100.5 3247.43,-48.5 3356.43,-48.5 3356.43,-100.5"/>
<text text-anchor="middle" x="3301.93" y="-88.5" font-family="Times,serif" font-size="10.00">origin/dev&#45;release</text>
<text text-anchor="middle" x="3301.93" y="-77.5" font-family="Times,serif" font-size="10.00">origin/dev</text>
<text text-anchor="middle" x="3301.93" y="-66.5" font-family="Times,serif" font-size="10.00">dev&#45;release</text>
<text text-anchor="middle" x="3301.93" y="-55.5" font-family="Times,serif" font-size="10.00">dev</text>
</g>
<!-- c863306&#45;&gt;bid&#45;00000003 -->
<g id="edge44" class="edge">
<title>c863306&#45;&gt;bid&#45;00000003</title>
<path fill="none" stroke="lightblue" d="M3301.93,-136.44C3301.93,-124.55 3301.93,-112.65 3301.93,-100.75"/>
</g>
<!-- 3cf4131 -->
<g id="node5" class="node">
<title>3cf4131</title>
<ellipse fill="tomato" stroke="tomato" cx="3177.47" cy="-154.5" rx="32.93" ry="18"/>
<text text-anchor="middle" x="3177.47" y="-152" font-family="Times,serif" font-size="10.00">3cf4131</text>
</g>
<!-- 3cf4131&#45;&gt;c863306 -->
<g id="edge4" class="edge">
<title>3cf4131&#45;&gt;c863306</title>
<path fill="none" stroke="black" d="M3220.92,-154.5C3236.23,-154.5 3253.28,-154.5 3267.69,-154.5"/>
<polygon fill="black" stroke="black" points="3210.64,-154.5 3220.64,-150 3215.64,-154.5 3220.64,-154.5 3220.64,-154.5 3220.64,-154.5 3215.64,-154.5 3220.64,-159 3210.64,-154.5 3210.64,-154.5"/>
</g>
<!-- 2b534e1 -->
<g id="node6" class="node">
<title>2b534e1</title>
<ellipse fill="tomato" stroke="tomato" cx="3066.77" cy="-154.5" rx="34.96" ry="18"/>
<text text-anchor="middle" x="3066.77" y="-152" font-family="Times,serif" font-size="10.00">2b534e1</text>
</g>
<!-- 2b534e1&#45;&gt;3cf4131 -->
<g id="edge5" class="edge">
<title>2b534e1&#45;&gt;3cf4131</title>
<path fill="none" stroke="black" stroke-dasharray="1,5" d="M3101.57,-154.5C3115.15,-154.5 3130.75,-154.5 3144.18,-154.5"/>
<text text-anchor="middle" x="3123" y="-157.5" font-family="Times,serif" font-size="10.00">5</text>
</g>
<!-- 071cd50 -->
<g id="node7" class="node">
<title>071cd50</title>
<ellipse fill="bisque" stroke="bisque" cx="2960.31" cy="-154.5" rx="34.96" ry="18"/>
<text text-anchor="middle" x="2960.31" y="-152" font-family="Times,serif" font-size="10.00">071cd50</text>
</g>
<!-- 071cd50&#45;&gt;2b534e1 -->
<g id="edge6" class="edge">
<title>071cd50&#45;&gt;2b534e1</title>
<path fill="none" stroke="black" d="M3005.45,-154.5C3014.35,-154.5 3023.56,-154.5 3032.03,-154.5"/>
<polygon fill="black" stroke="black" points="2995.23,-154.5 3005.23,-150 3000.23,-154.5 3005.23,-154.5 3005.23,-154.5 3005.23,-154.5 3000.23,-154.5 3005.23,-159 2995.23,-154.5 2995.23,-154.5"/>
</g>
<!-- b4131bc -->
<g id="node8" class="node">
<title>b4131bc</title>
<ellipse fill="bisque" stroke="bisque" cx="2853.85" cy="-182.5" rx="34.96" ry="18"/>
<text text-anchor="middle" x="2853.85" y="-180" font-family="Times,serif" font-size="10.00">b4131bc</text>
</g>
<!-- b4131bc&#45;&gt;071cd50 -->
<g id="edge8" class="edge">
<title>b4131bc&#45;&gt;071cd50</title>
<path fill="none" stroke="black" d="M2894.81,-171.79C2906.22,-168.73 2918.45,-165.45 2929.16,-162.58"/>
<polygon fill="black" stroke="black" points="2885.06,-174.4 2893.56,-167.47 2889.89,-173.11 2894.72,-171.81 2894.72,-171.81 2894.72,-171.81 2889.89,-173.11 2895.89,-176.16 2885.06,-174.4 2885.06,-174.4"/>
</g>
<!-- f914e84 -->
<g id="node9" class="node">
<title>f914e84</title>
<ellipse fill="bisque" stroke="bisque" cx="2853.85" cy="-128.5" rx="32.93" ry="18"/>
<text text-anchor="middle" x="2853.85" y="-126" font-family="Times,serif" font-size="10.00">f914e84</text>
</g>
<!-- f914e84&#45;&gt;071cd50 -->
<g id="edge7" class="edge">
<title>f914e84&#45;&gt;071cd50</title>
<path fill="none" stroke="black" d="M2894.01,-138.25C2905.48,-141.1 2917.85,-144.18 2928.7,-146.88"/>
<polygon fill="black" stroke="black" points="2884.22,-135.81 2895.02,-133.86 2889.08,-137.02 2893.93,-138.23 2893.93,-138.23 2893.93,-138.23 2889.08,-137.02 2892.84,-142.59 2884.22,-135.81 2884.22,-135.81"/>
</g>
<!-- 03485fc -->
<g id="node10" class="node">
<title>03485fc</title>
<ellipse fill="lightpink" stroke="lightpink" cx="2749.15" cy="-154.5" rx="32.93" ry="18"/>
<text text-anchor="middle" x="2749.15" y="-152" font-family="Times,serif" font-size="10.00">03485fc</text>
</g>
<!-- 03485fc&#45;&gt;b4131bc -->
<g id="edge9" class="edge">
<title>03485fc&#45;&gt;b4131bc</title>
<path fill="none" stroke="black" d="M2788.99,-165.09C2800.17,-168.14 2812.19,-171.42 2822.75,-174.3"/>
<polygon fill="black" stroke="black" points="2779.03,-162.37 2789.86,-160.66 2783.86,-163.69 2788.68,-165 2788.68,-165 2788.68,-165 2783.86,-163.69 2787.5,-169.35 2779.03,-162.37 2779.03,-162.37"/>
</g>
<!-- 03485fc&#45;&gt;f914e84 -->
<g id="edge10" class="edge">
<title>03485fc&#45;&gt;f914e84</title>
<path fill="none" stroke="black" d="M2789.09,-144.64C2800.55,-141.74 2812.88,-138.62 2823.62,-135.9"/>
<polygon fill="black" stroke="black" points="2779.31,-147.12 2787.9,-140.3 2784.15,-145.89 2789,-144.66 2789,-144.66 2789,-144.66 2784.15,-145.89 2790.1,-149.03 2779.31,-147.12 2779.31,-147.12"/>
</g>
<!-- b1aa959 -->
<g id="node11" class="node">
<title>b1aa959</title>
<ellipse fill="tomato" stroke="tomato" cx="2644.46" cy="-154.5" rx="34.96" ry="18"/>
<text text-anchor="middle" x="2644.46" y="-152" font-family="Times,serif" font-size="10.00">b1aa959</text>
</g>
<!-- b1aa959&#45;&gt;03485fc -->
<g id="edge11" class="edge">
<title>b1aa959&#45;&gt;03485fc</title>
<path fill="none" stroke="black" d="M2689.59,-154.5C2698.47,-154.5 2707.64,-154.5 2716.02,-154.5"/>
<polygon fill="black" stroke="black" points="2679.37,-154.5 2689.37,-150 2684.37,-154.5 2689.37,-154.5 2689.37,-154.5 2689.37,-154.5 2684.37,-154.5 2689.37,-159 2679.37,-154.5 2679.37,-154.5"/>
</g>
<!-- 4b4ce38 -->
<g id="node12" class="node">
<title>4b4ce38</title>
<ellipse fill="tomato" stroke="tomato" cx="2529.72" cy="-154.5" rx="34.96" ry="18"/>
<text text-anchor="middle" x="2529.72" y="-152" font-family="Times,serif" font-size="10.00">4b4ce38</text>
</g>
<!-- 4b4ce38&#45;&gt;b1aa959 -->
<g id="edge12" class="edge">
<title>4b4ce38&#45;&gt;b1aa959</title>
<path fill="none" stroke="black" stroke-dasharray="1,5" d="M2564.55,-154.5C2578.82,-154.5 2595.39,-154.5 2609.66,-154.5"/>
<text text-anchor="middle" x="2588.22" y="-157.5" font-family="Times,serif" font-size="10.00">2</text>
</g>
<!-- 27f33d2 -->
<g id="node13" class="node">
<title>27f33d2</title>
<ellipse fill="bisque" stroke="bisque" cx="2529.72" cy="-100.5" rx="33.61" ry="18"/>
<text text-anchor="middle" x="2529.72" y="-98" font-family="Times,serif" font-size="10.00">27f33d2</text>
</g>
<!-- bid&#45;00000015 -->
<g id="node42" class="node">
<title>bid&#45;00000015</title>
<polygon fill="lightblue" stroke="lightblue" points="2566.72,-46.5 2492.72,-46.5 2492.72,-16.5 2566.72,-16.5 2566.72,-46.5"/>
<text text-anchor="middle" x="2529.72" y="-34.5" font-family="Times,serif" font-size="10.00">origin/work</text>
<text text-anchor="middle" x="2529.72" y="-23.5" font-family="Times,serif" font-size="10.00">work</text>
</g>
<!-- 27f33d2&#45;&gt;bid&#45;00000015 -->
<g id="edge45" class="edge">
<title>27f33d2&#45;&gt;bid&#45;00000015</title>
<path fill="none" stroke="lightblue" d="M2529.72,-82.39C2529.72,-70.46 2529.72,-58.53 2529.72,-46.59"/>
</g>
<!-- a1d614e -->
<g id="node14" class="node">
<title>a1d614e</title>
<ellipse fill="lightpink" stroke="lightpink" cx="2420.99" cy="-126.5" rx="34.96" ry="18"/>
<text text-anchor="middle" x="2420.99" y="-124" font-family="Times,serif" font-size="10.00">a1d614e</text>
</g>
<!-- a1d614e&#45;&gt;4b4ce38 -->
<g id="edge13" class="edge">
<title>a1d614e&#45;&gt;4b4ce38</title>
<path fill="none" stroke="black" d="M2462.1,-137.02C2474.11,-140.17 2487.07,-143.57 2498.35,-146.53"/>
<polygon fill="black" stroke="black" points="2452.29,-134.45 2463.11,-132.63 2457.13,-135.72 2461.97,-136.99 2461.97,-136.99 2461.97,-136.99 2457.13,-135.72 2460.82,-141.34 2452.29,-134.45 2452.29,-134.45"/>
</g>
<!-- a1d614e&#45;&gt;27f33d2 -->
<g id="edge14" class="edge">
<title>a1d614e&#45;&gt;27f33d2</title>
<path fill="none" stroke="black" d="M2462.65,-116.6C2474.61,-113.68 2487.48,-110.55 2498.66,-107.82"/>
<polygon fill="black" stroke="black" points="2452.86,-118.98 2461.51,-112.24 2457.72,-117.8 2462.58,-116.61 2462.58,-116.61 2462.58,-116.61 2457.72,-117.8 2463.65,-120.98 2452.86,-118.98 2452.86,-118.98"/>
</g>
<!-- 91ce8d9 -->
<g id="node15" class="node">
<title>91ce8d9</title>
<ellipse fill="bisque" stroke="bisque" cx="2314.53" cy="-126.5" rx="34.96" ry="18"/>
<text text-anchor="middle" x="2314.53" y="-124" font-family="Times,serif" font-size="10.00">91ce8d9</text>
</g>
<!-- 91ce8d9&#45;&gt;a1d614e -->
<g id="edge15" class="edge">
<title>91ce8d9&#45;&gt;a1d614e</title>
<path fill="none" stroke="black" d="M2359.67,-126.5C2368.57,-126.5 2377.78,-126.5 2386.25,-126.5"/>
<polygon fill="black" stroke="black" points="2349.45,-126.5 2359.45,-122 2354.45,-126.5 2359.45,-126.5 2359.45,-126.5 2359.45,-126.5 2354.45,-126.5 2359.45,-131 2349.45,-126.5 2349.45,-126.5"/>
</g>
<!-- 4cd0b03 -->
<g id="node16" class="node">
<title>4cd0b03</title>
<ellipse fill="tomato" stroke="tomato" cx="2208.07" cy="-126.5" rx="34.96" ry="18"/>
<text text-anchor="middle" x="2208.07" y="-124" font-family="Times,serif" font-size="10.00">4cd0b03</text>
</g>
<!-- 4cd0b03&#45;&gt;91ce8d9 -->
<g id="edge16" class="edge">
<title>4cd0b03&#45;&gt;91ce8d9</title>
<path fill="none" stroke="black" d="M2253.21,-126.5C2262.1,-126.5 2271.32,-126.5 2279.79,-126.5"/>
<polygon fill="black" stroke="black" points="2242.98,-126.5 2252.98,-122 2247.98,-126.5 2252.98,-126.5 2252.98,-126.5 2252.98,-126.5 2247.98,-126.5 2252.98,-131 2242.98,-126.5 2242.98,-126.5"/>
</g>
<!-- 361ab47 -->
<g id="node17" class="node">
<title>361ab47</title>
<ellipse fill="tomato" stroke="tomato" cx="2095.61" cy="-126.5" rx="34.96" ry="18"/>
<text text-anchor="middle" x="2095.61" y="-124" font-family="Times,serif" font-size="10.00">361ab47</text>
</g>
<!-- 361ab47&#45;&gt;4cd0b03 -->
<g id="edge17" class="edge">
<title>361ab47&#45;&gt;4cd0b03</title>
<path fill="none" stroke="black" stroke-dasharray="1,5" d="M2130.35,-126.5C2143.93,-126.5 2159.56,-126.5 2173.15,-126.5"/>
<text text-anchor="middle" x="2151.84" y="-129.5" font-family="Times,serif" font-size="10.00">4</text>
</g>
<!-- a539c4a -->
<g id="node18" class="node">
<title>a539c4a</title>
<ellipse fill="bisque" stroke="bisque" cx="1989.73" cy="-126.5" rx="34.29" ry="18"/>
<text text-anchor="middle" x="1989.73" y="-124" font-family="Times,serif" font-size="10.00">a539c4a</text>
</g>
<!-- a539c4a&#45;&gt;361ab47 -->
<g id="edge18" class="edge">
<title>a539c4a&#45;&gt;361ab47</title>
<path fill="none" stroke="black" d="M2034.09,-126.5C2042.98,-126.5 2052.2,-126.5 2060.7,-126.5"/>
<polygon fill="black" stroke="black" points="2023.88,-126.5 2033.88,-122 2028.88,-126.5 2033.88,-126.5 2033.88,-126.5 2033.88,-126.5 2028.88,-126.5 2033.88,-131 2023.88,-126.5 2023.88,-126.5"/>
</g>
<!-- 450b079 -->
<g id="node19" class="node">
<title>450b079</title>
<ellipse fill="tomato" stroke="tomato" cx="1883.86" cy="-160.5" rx="34.96" ry="18"/>
<text text-anchor="middle" x="1883.86" y="-158" font-family="Times,serif" font-size="10.00">450b079</text>
</g>
<!-- 450b079&#45;&gt;a539c4a -->
<g id="edge20" class="edge">
<title>450b079&#45;&gt;a539c4a</title>
<path fill="none" stroke="black" d="M1923.07,-147.99C1935.34,-143.98 1948.71,-139.6 1960.17,-135.85"/>
<polygon fill="black" stroke="black" points="1913.52,-151.12 1921.62,-143.73 1918.27,-149.56 1923.02,-148.01 1923.02,-148.01 1923.02,-148.01 1918.27,-149.56 1924.42,-152.29 1913.52,-151.12 1913.52,-151.12"/>
</g>
<!-- 5b14a5a -->
<g id="node20" class="node">
<title>5b14a5a</title>
<ellipse fill="tomato" stroke="tomato" cx="1708.93" cy="-160.5" rx="34.96" ry="18"/>
<text text-anchor="middle" x="1708.93" y="-158" font-family="Times,serif" font-size="10.00">5b14a5a</text>
</g>
<!-- 5b14a5a&#45;&gt;450b079 -->
<g id="edge21" class="edge">
<title>5b14a5a&#45;&gt;450b079</title>
<path fill="none" stroke="black" stroke-dasharray="1,5" d="M1743.69,-160.5C1774.06,-160.5 1818.46,-160.5 1848.9,-160.5"/>
<text text-anchor="middle" x="1796.4" y="-163.5" font-family="Times,serif" font-size="10.00">2</text>
</g>
<!-- d3465ea -->
<g id="node21" class="node">
<title>d3465ea</title>
<ellipse fill="bisque" stroke="bisque" cx="1796.4" cy="-114.5" rx="34.96" ry="18"/>
<text text-anchor="middle" x="1796.4" y="-112" font-family="Times,serif" font-size="10.00">d3465ea</text>
</g>
<!-- d3465ea&#45;&gt;a539c4a -->
<g id="edge19" class="edge">
<title>d3465ea&#45;&gt;a539c4a</title>
<path fill="none" stroke="black" d="M1841.51,-117.27C1876.3,-119.45 1924.05,-122.44 1955.62,-124.42"/>
<polygon fill="black" stroke="black" points="1831.16,-116.62 1841.43,-112.75 1836.15,-116.93 1841.14,-117.24 1841.14,-117.24 1841.14,-117.24 1836.15,-116.93 1840.86,-121.73 1831.16,-116.62 1831.16,-116.62"/>
</g>
<!-- 3c3febd -->
<g id="node22" class="node">
<title>3c3febd</title>
<ellipse fill="lightpink" stroke="lightpink" cx="1603.65" cy="-126.5" rx="33.61" ry="18"/>
<text text-anchor="middle" x="1603.65" y="-124" font-family="Times,serif" font-size="10.00">3c3febd</text>
</g>
<!-- 3c3febd&#45;&gt;5b14a5a -->
<g id="edge22" class="edge">
<title>3c3febd&#45;&gt;5b14a5a</title>
<path fill="none" stroke="black" d="M1642.11,-138.83C1654.36,-142.86 1667.75,-147.27 1679.24,-151.05"/>
<polygon fill="black" stroke="black" points="1632.6,-135.7 1643.51,-134.55 1637.35,-137.26 1642.1,-138.83 1642.1,-138.83 1642.1,-138.83 1637.35,-137.26 1640.69,-143.1 1632.6,-135.7 1632.6,-135.7"/>
</g>
<!-- 3c3febd&#45;&gt;d3465ea -->
<g id="edge23" class="edge">
<title>3c3febd&#45;&gt;d3465ea</title>
<path fill="none" stroke="black" d="M1647.25,-123.82C1681.75,-121.65 1729.7,-118.63 1761.59,-116.63"/>
<polygon fill="black" stroke="black" points="1637.01,-124.46 1646.71,-119.35 1642,-124.15 1646.99,-123.84 1646.99,-123.84 1646.99,-123.84 1642,-124.15 1647.27,-128.33 1637.01,-124.46 1637.01,-124.46"/>
</g>
<!-- d7eabda -->
<g id="node23" class="node">
<title>d7eabda</title>
<ellipse fill="tomato" stroke="tomato" cx="1497.19" cy="-126.5" rx="35.82" ry="18"/>
<text text-anchor="middle" x="1497.19" y="-124" font-family="Times,serif" font-size="10.00">d7eabda</text>
</g>
<!-- d7eabda&#45;&gt;3c3febd -->
<g id="edge24" class="edge">
<title>d7eabda&#45;&gt;3c3febd</title>
<path fill="none" stroke="black" d="M1543.52,-126.5C1552.41,-126.5 1561.58,-126.5 1569.96,-126.5"/>
<polygon fill="black" stroke="black" points="1533.26,-126.5 1543.26,-122 1538.26,-126.5 1543.26,-126.5 1543.26,-126.5 1543.26,-126.5 1538.26,-126.5 1543.26,-131 1533.26,-126.5 1533.26,-126.5"/>
</g>
<!-- 9efc05e -->
<g id="node24" class="node">
<title>9efc05e</title>
<ellipse fill="tomato" stroke="tomato" cx="1385.31" cy="-126.5" rx="32.93" ry="18"/>
<text text-anchor="middle" x="1385.31" y="-124" font-family="Times,serif" font-size="10.00">9efc05e</text>
</g>
<!-- 9efc05e&#45;&gt;d7eabda -->
<g id="edge25" class="edge">
<title>9efc05e&#45;&gt;d7eabda</title>
<path fill="none" stroke="black" stroke-dasharray="1,5" d="M1418.39,-126.5C1431.82,-126.5 1447.46,-126.5 1461.19,-126.5"/>
<text text-anchor="middle" x="1439.78" y="-129.5" font-family="Times,serif" font-size="10.00">5</text>
</g>
<!-- efca976 -->
<g id="node25" class="node">
<title>efca976</title>
<ellipse fill="bisque" stroke="bisque" cx="1281.21" cy="-126.5" rx="32.93" ry="18"/>
<text text-anchor="middle" x="1281.21" y="-124" font-family="Times,serif" font-size="10.00">efca976</text>
</g>
<!-- efca976&#45;&gt;9efc05e -->
<g id="edge26" class="edge">
<title>efca976&#45;&gt;9efc05e</title>
<path fill="none" stroke="black" d="M1324.42,-126.5C1333.65,-126.5 1343.28,-126.5 1352.05,-126.5"/>
<polygon fill="black" stroke="black" points="1314.23,-126.5 1324.23,-122 1319.23,-126.5 1324.23,-126.5 1324.23,-126.5 1324.23,-126.5 1319.23,-126.5 1324.23,-131 1314.23,-126.5 1314.23,-126.5"/>
</g>
<!-- 0a1b3d7 -->
<g id="node26" class="node">
<title>0a1b3d7</title>
<ellipse fill="bisque" stroke="bisque" cx="982" cy="-126.5" rx="35.14" ry="18"/>
<text text-anchor="middle" x="982" y="-124" font-family="Times,serif" font-size="10.00">0a1b3d7</text>
</g>
<!-- 0a1b3d7&#45;&gt;efca976 -->
<g id="edge27" class="edge">
<title>0a1b3d7&#45;&gt;efca976</title>
<path fill="none" stroke="black" d="M1027.39,-126.5C1087.82,-126.5 1194.57,-126.5 1247.94,-126.5"/>
<polygon fill="black" stroke="black" points="1017.38,-126.5 1027.38,-122 1022.38,-126.5 1027.38,-126.5 1027.38,-126.5 1027.38,-126.5 1022.38,-126.5 1027.38,-131 1017.38,-126.5 1017.38,-126.5"/>
</g>
<!-- 89bc7ec -->
<g id="node27" class="node">
<title>89bc7ec</title>
<ellipse fill="bisque" stroke="bisque" cx="1281.21" cy="-72.5" rx="34.29" ry="18"/>
<text text-anchor="middle" x="1281.21" y="-70" font-family="Times,serif" font-size="10.00">89bc7ec</text>
</g>
<!-- bid&#45;00000034 -->
<g id="node44" class="node">
<title>bid&#45;00000034</title>
<polygon fill="lightblue" stroke="lightblue" points="1308.21,-19 1254.21,-19 1254.21,0 1308.21,0 1308.21,-19"/>
<text text-anchor="middle" x="1281.21" y="-7" font-family="Times,serif" font-size="10.00">merge</text>
</g>
<!-- 89bc7ec&#45;&gt;bid&#45;00000034 -->
<g id="edge47" class="edge">
<title>89bc7ec&#45;&gt;bid&#45;00000034</title>
<path fill="none" stroke="lightblue" d="M1281.21,-54.23C1281.21,-42.6 1281.21,-30.97 1281.21,-19.34"/>
</g>
<!-- 7740c01 -->
<g id="node28" class="node">
<title>7740c01</title>
<ellipse fill="lightpink" stroke="lightpink" cx="1175.92" cy="-80.5" rx="34.29" ry="18"/>
<text text-anchor="middle" x="1175.92" y="-78" font-family="Times,serif" font-size="10.00">7740c01</text>
</g>
<!-- 7740c01&#45;&gt;efca976 -->
<g id="edge28" class="edge">
<title>7740c01&#45;&gt;efca976</title>
<path fill="none" stroke="black" d="M1211.88,-96.07C1226.01,-102.36 1242.01,-109.49 1254.97,-115.26"/>
<polygon fill="black" stroke="black" points="1202.45,-91.87 1213.42,-91.83 1207.02,-93.91 1211.59,-95.94 1211.59,-95.94 1211.59,-95.94 1207.02,-93.91 1209.76,-100.05 1202.45,-91.87 1202.45,-91.87"/>
</g>
<!-- 7740c01&#45;&gt;89bc7ec -->
<g id="edge30" class="edge">
<title>7740c01&#45;&gt;89bc7ec</title>
<path fill="none" stroke="black" d="M1219.95,-77.17C1229.06,-76.46 1238.53,-75.73 1247.2,-75.06"/>
<polygon fill="black" stroke="black" points="1209.89,-77.95 1219.51,-72.69 1214.87,-77.56 1219.86,-77.17 1219.86,-77.17 1219.86,-77.17 1214.87,-77.56 1220.2,-81.66 1209.89,-77.95 1209.89,-77.95"/>
</g>
<!-- 3e6d441 -->
<g id="node29" class="node">
<title>3e6d441</title>
<ellipse fill="tomato" stroke="tomato" cx="1070.05" cy="-80.5" rx="34.96" ry="18"/>
<text text-anchor="middle" x="1070.05" y="-78" font-family="Times,serif" font-size="10.00">3e6d441</text>
</g>
<!-- 3e6d441&#45;&gt;7740c01 -->
<g id="edge31" class="edge">
<title>3e6d441&#45;&gt;7740c01</title>
<path fill="none" stroke="black" d="M1115.21,-80.5C1124.03,-80.5 1133.16,-80.5 1141.54,-80.5"/>
<polygon fill="black" stroke="black" points="1105.06,-80.5 1115.06,-76 1110.06,-80.5 1115.06,-80.5 1115.06,-80.5 1115.06,-80.5 1110.06,-80.5 1115.06,-85 1105.06,-80.5 1105.06,-80.5"/>
</g>
<!-- 7148c59 -->
<g id="node30" class="node">
<title>7148c59</title>
<ellipse fill="tomato" stroke="tomato" cx="894.54" cy="-80.5" rx="34.29" ry="18"/>
<text text-anchor="middle" x="894.54" y="-78" font-family="Times,serif" font-size="10.00">7148c59</text>
</g>
<!-- 7148c59&#45;&gt;3e6d441 -->
<g id="edge32" class="edge">
<title>7148c59&#45;&gt;3e6d441</title>
<path fill="none" stroke="black" stroke-dasharray="1,5" d="M928.99,-80.5C959.52,-80.5 1004.42,-80.5 1035.1,-80.5"/>
<text text-anchor="middle" x="982" y="-83.5" font-family="Times,serif" font-size="10.00">3</text>
</g>
<!-- 6a23863 -->
<g id="node31" class="node">
<title>6a23863</title>
<ellipse fill="lightpink" stroke="lightpink" cx="788.66" cy="-103.5" rx="34.96" ry="18"/>
<text text-anchor="middle" x="788.66" y="-101" font-family="Times,serif" font-size="10.00">6a23863</text>
</g>
<!-- 6a23863&#45;&gt;0a1b3d7 -->
<g id="edge29" class="edge">
<title>6a23863&#45;&gt;0a1b3d7</title>
<path fill="none" stroke="black" d="M832.84,-108.69C867.47,-112.85 915.39,-118.61 947.25,-122.44"/>
<polygon fill="black" stroke="black" points="822.55,-107.45 833.02,-104.18 827.52,-108.05 832.48,-108.65 832.48,-108.65 832.48,-108.65 827.52,-108.05 831.94,-113.12 822.55,-107.45 822.55,-107.45"/>
</g>
<!-- 6a23863&#45;&gt;7148c59 -->
<g id="edge33" class="edge">
<title>6a23863&#45;&gt;7148c59</title>
<path fill="none" stroke="black" d="M830.78,-94.39C841.44,-92.04 852.73,-89.54 862.75,-87.32"/>
<polygon fill="black" stroke="black" points="820.83,-96.6 829.62,-90.04 825.71,-95.52 830.59,-94.44 830.59,-94.44 830.59,-94.44 825.71,-95.52 831.56,-98.83 820.83,-96.6 820.83,-96.6"/>
</g>
<!-- a3d22a7 -->
<g id="node32" class="node">
<title>a3d22a7</title>
<ellipse fill="tomato" stroke="tomato" cx="682.2" cy="-103.5" rx="34.96" ry="18"/>
<text text-anchor="middle" x="682.2" y="-101" font-family="Times,serif" font-size="10.00">a3d22a7</text>
</g>
<!-- a3d22a7&#45;&gt;6a23863 -->
<g id="edge34" class="edge">
<title>a3d22a7&#45;&gt;6a23863</title>
<path fill="none" stroke="black" d="M727.34,-103.5C736.23,-103.5 745.45,-103.5 753.92,-103.5"/>
<polygon fill="black" stroke="black" points="717.12,-103.5 727.12,-99 722.12,-103.5 727.12,-103.5 727.12,-103.5 727.12,-103.5 722.12,-103.5 727.12,-108 717.12,-103.5 717.12,-103.5"/>
</g>
<!-- 9cd7238 -->
<g id="node33" class="node">
<title>9cd7238</title>
<ellipse fill="tomato" stroke="tomato" cx="563.74" cy="-103.5" rx="34.96" ry="18"/>
<text text-anchor="middle" x="563.74" y="-101" font-family="Times,serif" font-size="10.00">9cd7238</text>
</g>
<!-- 9cd7238&#45;&gt;a3d22a7 -->
<g id="edge35" class="edge">
<title>9cd7238&#45;&gt;a3d22a7</title>
<path fill="none" stroke="black" stroke-dasharray="1,5" d="M598.74,-103.5C614.04,-103.5 632.07,-103.5 647.36,-103.5"/>
<text text-anchor="middle" x="622.97" y="-106.5" font-family="Times,serif" font-size="10.00">10</text>
</g>
<!-- 5c950c9 -->
<g id="node34" class="node">
<title>5c950c9</title>
<ellipse fill="bisque" stroke="bisque" cx="458.45" cy="-103.5" rx="33.61" ry="18"/>
<text text-anchor="middle" x="458.45" y="-101" font-family="Times,serif" font-size="10.00">5c950c9</text>
</g>
<!-- 5c950c9&#45;&gt;9cd7238 -->
<g id="edge36" class="edge">
<title>5c950c9&#45;&gt;9cd7238</title>
<path fill="none" stroke="black" d="M502.3,-103.5C511.15,-103.5 520.36,-103.5 528.85,-103.5"/>
<polygon fill="black" stroke="black" points="492.13,-103.5 502.13,-99 497.13,-103.5 502.13,-103.5 502.13,-103.5 502.13,-103.5 497.13,-103.5 502.13,-108 492.13,-103.5 492.13,-103.5"/>
</g>
<!-- aaafc61 -->
<g id="node35" class="node">
<title>aaafc61</title>
<ellipse fill="bisque" stroke="bisque" cx="354.93" cy="-131.5" rx="32.93" ry="18"/>
<text text-anchor="middle" x="354.93" y="-129" font-family="Times,serif" font-size="10.00">aaafc61</text>
</g>
<!-- aaafc61&#45;&gt;5c950c9 -->
<g id="edge38" class="edge">
<title>aaafc61&#45;&gt;5c950c9</title>
<path fill="none" stroke="black" d="M394.68,-120.81C405.81,-117.74 417.75,-114.45 428.21,-111.57"/>
<polygon fill="black" stroke="black" points="384.75,-123.55 393.2,-116.55 389.57,-122.22 394.39,-120.89 394.39,-120.89 394.39,-120.89 389.57,-122.22 395.59,-125.23 384.75,-123.55 384.75,-123.55"/>
</g>
<!-- 137f406 -->
<g id="node36" class="node">
<title>137f406</title>
<ellipse fill="bisque" stroke="bisque" cx="354.93" cy="-77.5" rx="32.93" ry="18"/>
<text text-anchor="middle" x="354.93" y="-75" font-family="Times,serif" font-size="10.00">137f406</text>
</g>
<!-- 137f406&#45;&gt;5c950c9 -->
<g id="edge37" class="edge">
<title>137f406&#45;&gt;5c950c9</title>
<path fill="none" stroke="black" d="M394.76,-87.44C405.67,-90.24 417.36,-93.23 427.65,-95.87"/>
<polygon fill="black" stroke="black" points="385.02,-84.95 395.83,-83.07 389.87,-86.19 394.71,-87.43 394.71,-87.43 394.71,-87.43 389.87,-86.19 393.6,-91.79 385.02,-84.95 385.02,-84.95"/>
</g>
<!-- 75f77a5 -->
<g id="node37" class="node">
<title>75f77a5</title>
<ellipse fill="lightpink" stroke="lightpink" cx="252" cy="-103.5" rx="32.93" ry="18"/>
<text text-anchor="middle" x="252" y="-101" font-family="Times,serif" font-size="10.00">75f77a5</text>
</g>
<!-- 75f77a5&#45;&gt;aaafc61 -->
<g id="edge39" class="edge">
<title>75f77a5&#45;&gt;aaafc61</title>
<path fill="none" stroke="black" d="M291.61,-114.21C302.78,-117.31 314.76,-120.63 325.21,-123.53"/>
<polygon fill="black" stroke="black" points="281.66,-111.45 292.49,-109.79 286.47,-112.79 291.29,-114.12 291.29,-114.12 291.29,-114.12 286.47,-112.79 290.09,-118.46 281.66,-111.45 281.66,-111.45"/>
</g>
<!-- 75f77a5&#45;&gt;137f406 -->
<g id="edge40" class="edge">
<title>75f77a5&#45;&gt;137f406</title>
<path fill="none" stroke="black" d="M291.95,-93.47C302.88,-90.65 314.56,-87.64 324.81,-85"/>
<polygon fill="black" stroke="black" points="282.2,-95.98 290.76,-89.13 287.04,-94.73 291.88,-93.49 291.88,-93.49 291.88,-93.49 287.04,-94.73 293,-97.84 282.2,-95.98 282.2,-95.98"/>
</g>
<!-- a1e2721 -->
<g id="node38" class="node">
<title>a1e2721</title>
<ellipse fill="tomato" stroke="tomato" cx="147.31" cy="-103.5" rx="34.96" ry="18"/>
<text text-anchor="middle" x="147.31" y="-101" font-family="Times,serif" font-size="10.00">a1e2721</text>
</g>
<!-- a1e2721&#45;&gt;75f77a5 -->
<g id="edge41" class="edge">
<title>a1e2721&#45;&gt;75f77a5</title>
<path fill="none" stroke="black" d="M192.44,-103.5C201.32,-103.5 210.49,-103.5 218.87,-103.5"/>
<polygon fill="black" stroke="black" points="182.22,-103.5 192.22,-99 187.22,-103.5 192.22,-103.5 192.22,-103.5 192.22,-103.5 187.22,-103.5 192.22,-108 182.22,-103.5 182.22,-103.5"/>
</g>
<!-- f843f58 -->
<g id="node39" class="node">
<title>f843f58</title>
<ellipse fill="tomato" stroke="tomato" cx="31.79" cy="-103.5" rx="31.58" ry="18"/>
<text text-anchor="middle" x="31.79" y="-101" font-family="Times,serif" font-size="10.00">f843f58</text>
</g>
<!-- f843f58&#45;&gt;a1e2721 -->
<g id="edge42" class="edge">
<title>f843f58&#45;&gt;a1e2721</title>
<path fill="none" stroke="black" stroke-dasharray="1,5" d="M63.81,-103.5C78.91,-103.5 97.09,-103.5 112.54,-103.5"/>
<text text-anchor="middle" x="88.08" y="-106.5" font-family="Times,serif" font-size="10.00">38</text>
</g>
<!-- tid&#45;00000017 -->
<g id="node43" class="node">
<title>tid&#45;00000017</title>
<polygon fill="thistle" stroke="thistle" points="2344.53,-199 2284.53,-199 2284.53,-180 2344.53,-180 2344.53,-199"/>
<text text-anchor="middle" x="2314.53" y="-187" font-family="Times,serif" font-size="10.00">tag: v0.1</text>
</g>
<!-- tid&#45;00000017&#45;&gt;91ce8d9 -->
<g id="edge46" class="edge">
<title>tid&#45;00000017&#45;&gt;91ce8d9</title>
<path fill="none" stroke="thistle" d="M2314.53,-179.7C2314.53,-168.04 2314.53,-156.37 2314.53,-144.71"/>
</g>
</g>
</svg>
